REM DIRINDEX 1\2,1\3
REM DIRNAME folder01,folder02,folder03
TITLE ""
FILE "CD1Track12.mp3" MP3
  TRACK 01 AUDIO
    TITLE "0:"
    INDEX 01 00:00:00
  TRACK 02 AUDIO
    TITLE "2:cjc102_0474"
    INDEX 01 00:00:25
  TRACK 03 AUDIO
    TITLE "0:"
    INDEX 01 00:01:40
  TRACK 04 AUDIO
    TITLE "3:cjc102_0475"
    INDEX 01 00:01:48
  TRACK 05 AUDIO
    TITLE "0:"
    INDEX 01 00:03:10
  TRACK 06 AUDIO
    TITLE "3:cjc102_0476"
    INDEX 01 00:03:68
  TRACK 07 AUDIO
    TITLE "0:"
    INDEX 01 00:11:07
  TRACK 08 AUDIO
    TITLE "2:cjc102_0477"
    INDEX 01 00:11:15
  TRACK 09 AUDIO
    TITLE "0:"
    INDEX 01 00:12:34
  TRACK 10 AUDIO
    TITLE "3:cjc102_0478"
    INDEX 01 00:13:63
  TRACK 11 AUDIO
    TITLE "0:"
    INDEX 01 00:14:56
  TRACK 12 AUDIO
    TITLE "2:cjc102_0479"
    INDEX 01 00:15:17
  TRACK 13 AUDIO
    TITLE "0:"
    INDEX 01 00:16:32
  TRACK 14 AUDIO
    TITLE "3:cjc102_0480"
    INDEX 01 00:17:21
  TRACK 15 AUDIO
    TITLE "0:"
    INDEX 01 00:18:07
  TRACK 16 AUDIO
    TITLE "2:cjc102_0481"
    INDEX 01 00:18:33
  TRACK 17 AUDIO
    TITLE "0:"
    INDEX 01 00:19:40
  TRACK 18 AUDIO
    TITLE "3:cjc102_0482"
    INDEX 01 00:20:34
  TRACK 19 AUDIO
    TITLE "0:"
    INDEX 01 00:21:31
  TRACK 20 AUDIO
    TITLE "2:cjc102_0483"
    INDEX 01 00:21:58
  TRACK 21 AUDIO
    TITLE "0:"
    INDEX 01 00:22:64
  TRACK 22 AUDIO
    TITLE "3:cjc102_0484"
    INDEX 01 00:23:59
  TRACK 23 AUDIO
    TITLE "0:"
    INDEX 01 00:24:53
  TRACK 24 AUDIO
    TITLE "2:cjc102_0485"
    INDEX 01 00:25:05
  TRACK 25 AUDIO
    TITLE "0:"
    INDEX 01 00:26:20
  TRACK 26 AUDIO
    TITLE "3:cjc102_0486"
    INDEX 01 00:27:28
  TRACK 27 AUDIO
    TITLE "0:"
    INDEX 01 00:28:12
  TRACK 28 AUDIO
    TITLE "2:cjc102_0487"
    INDEX 01 00:28:66
  TRACK 29 AUDIO
    TITLE "0:"
    INDEX 01 00:30:08
  TRACK 30 AUDIO
    TITLE "3:cjc102_0488"
    INDEX 01 00:31:00
  TRACK 31 AUDIO
    TITLE "0:"
    INDEX 01 00:31:71
  TRACK 32 AUDIO
    TITLE "2:cjc102_0489"
    INDEX 01 00:32:27
  TRACK 33 AUDIO
    TITLE "0:"
    INDEX 01 00:33:46
  TRACK 34 AUDIO
    TITLE "3:cjc102_0490"
    INDEX 01 00:34:53
  TRACK 35 AUDIO
    TITLE "0:"
    INDEX 01 00:35:47
  TRACK 36 AUDIO
    TITLE "2:cjc102_0491"
    INDEX 01 00:36:05
  TRACK 37 AUDIO
    TITLE "0:"
    INDEX 01 00:37:22
  TRACK 38 AUDIO
    TITLE "3:cjc102_0492"
    INDEX 01 00:38:37
  TRACK 39 AUDIO
    TITLE "0:"
    INDEX 01 00:39:31
  TRACK 40 AUDIO
    TITLE "2:cjc102_0493"
    INDEX 01 00:40:01
  TRACK 41 AUDIO
    TITLE "0:"
    INDEX 01 00:41:20
  TRACK 42 AUDIO
    TITLE "3:cjc102_0494"
    INDEX 01 00:42:37
  TRACK 43 AUDIO
    TITLE "0:"
    INDEX 01 00:43:31
  TRACK 44 AUDIO
    TITLE "2:cjc102_0495"
    INDEX 01 00:43:72
  TRACK 45 AUDIO
    TITLE "0:"
    INDEX 01 00:45:14
  TRACK 46 AUDIO
    TITLE "3:cjc102_0496"
    INDEX 01 00:46:25
  TRACK 47 AUDIO
    TITLE "0:"
    INDEX 01 00:47:25
  TRACK 48 AUDIO
    TITLE "2:cjc102_0497"
    INDEX 01 00:47:56
  TRACK 49 AUDIO
    TITLE "0:"
    INDEX 01 00:48:67
  TRACK 50 AUDIO
    TITLE "3:cjc102_0498"
    INDEX 01 00:50:09
  TRACK 51 AUDIO
    TITLE "0:"
    INDEX 01 00:51:28
  TRACK 52 AUDIO
    TITLE "2:cjc102_0499"
    INDEX 01 00:51:69
  TRACK 53 AUDIO
    TITLE "0:"
    INDEX 01 00:53:04
  TRACK 54 AUDIO
    TITLE "3:cjc102_0500"
    INDEX 01 00:54:21
  TRACK 55 AUDIO
    TITLE "0:"
    INDEX 01 00:55:22
  TRACK 56 AUDIO
    TITLE "2:cjc102_0501"
    INDEX 01 00:55:69
  TRACK 57 AUDIO
    TITLE "0:"
    INDEX 01 00:57:46
  TRACK 58 AUDIO
    TITLE "3:cjc102_0502"
    INDEX 01 00:58:32
  TRACK 59 AUDIO
    TITLE "0:"
    INDEX 01 00:59:49
  TRACK 60 AUDIO
    TITLE "2:cjc102_0503"
    INDEX 01 01:00:21
  TRACK 61 AUDIO
    TITLE "0:"
    INDEX 01 01:01:34
  TRACK 62 AUDIO
    TITLE "3:cjc102_0504"
    INDEX 01 01:02:44
  TRACK 63 AUDIO
    TITLE "0:"
    INDEX 01 01:03:59
  TRACK 64 AUDIO
    TITLE "2:cjc102_0505"
    INDEX 01 01:04:19
  TRACK 65 AUDIO
    TITLE "0:"
    INDEX 01 01:05:34
  TRACK 66 AUDIO
    TITLE "3:cjc102_0506"
    INDEX 01 01:06:42
  TRACK 67 AUDIO
    TITLE "0:"
    INDEX 01 01:07:47
  TRACK 68 AUDIO
    TITLE "2:cjc102_0507"
    INDEX 01 01:08:31
  TRACK 69 AUDIO
    TITLE "0:"
    INDEX 01 01:09:40
  TRACK 70 AUDIO
    TITLE "3:cjc102_0508"
    INDEX 01 01:10:51
  TRACK 71 AUDIO
    TITLE "0:"
    INDEX 01 01:11:58
  TRACK 72 AUDIO
    TITLE "2:cjc102_0509"
    INDEX 01 01:12:23
  TRACK 73 AUDIO
    TITLE "0:"
    INDEX 01 01:13:49
  TRACK 74 AUDIO
    TITLE "3:cjc102_0510"
    INDEX 01 01:15:05
  TRACK 75 AUDIO
    TITLE "0:"
    INDEX 01 01:16:22
  TRACK 76 AUDIO
    TITLE "2:cjc102_0511"
    INDEX 01 01:17:12
  TRACK 77 AUDIO
    TITLE "0:"
    INDEX 01 01:18:31
  TRACK 78 AUDIO
    TITLE "2:cjc102_0512"
    INDEX 01 01:19:09
  TRACK 79 AUDIO
    TITLE "0:"
    INDEX 01 01:20:34
  TRACK 80 AUDIO
    TITLE "3:cjc102_0513"
    INDEX 01 01:21:51
  TRACK 81 AUDIO
    TITLE "0:"
    INDEX 01 01:22:70
  TRACK 82 AUDIO
    TITLE "2:cjc102_0514"
    INDEX 01 01:23:13
  TRACK 83 AUDIO
    TITLE "0:"
    INDEX 01 01:24:28
  TRACK 84 AUDIO
    TITLE "2:cjc102_0515"
    INDEX 01 01:24:57
  TRACK 85 AUDIO
    TITLE "0:"
    INDEX 01 01:26:05
  TRACK 86 AUDIO
    TITLE "3:cjc102_0516"
    INDEX 01 01:27:14
  TRACK 87 AUDIO
    TITLE "0:"
    INDEX 01 01:28:31
  TRACK 88 AUDIO
    TITLE "2:cjc102_0517"
    INDEX 01 01:28:65
  TRACK 89 AUDIO
    TITLE "0:"
    INDEX 01 01:30:01
  TRACK 90 AUDIO
    TITLE "2:cjc102_0518"
    INDEX 01 01:30:40
  TRACK 91 AUDIO
    TITLE "0:"
    INDEX 01 01:31:55
  TRACK 92 AUDIO
    TITLE "3:cjc102_0519"
    INDEX 01 01:32:72
  TRACK 93 AUDIO
    TITLE "0:"
    INDEX 01 01:34:05
  TRACK 94 AUDIO
    TITLE "2:cjc102_0520"
    INDEX 01 01:34:36
  TRACK 95 AUDIO
    TITLE "0:"
    INDEX 01 01:35:49
  TRACK 96 AUDIO
    TITLE "2:cjc102_0521"
    INDEX 01 01:36:07
  TRACK 97 AUDIO
    TITLE "0:"
    INDEX 01 01:37:26
  TRACK 98 AUDIO
    TITLE "3:cjc102_0522"
    INDEX 01 01:38:42
  TRACK 99 AUDIO
    TITLE "0:"
    INDEX 01 01:39:68
  TRACK 100 AUDIO
    TITLE "2:cjc102_0523"
    INDEX 01 01:40:27
  TRACK 101 AUDIO
    TITLE "0:"
    INDEX 01 01:41:38
  TRACK 102 AUDIO
    TITLE "2:cjc102_0524"
    INDEX 01 01:42:04
  TRACK 103 AUDIO
    TITLE "0:"
    INDEX 01 01:43:19
  TRACK 104 AUDIO
    TITLE "3:cjc102_0525"
    INDEX 01 01:44:32
  TRACK 105 AUDIO
    TITLE "0:"
    INDEX 01 01:45:49
  TRACK 106 AUDIO
    TITLE "2:cjc102_0526"
    INDEX 01 01:46:14
  TRACK 107 AUDIO
    TITLE "0:"
    INDEX 01 01:47:31
  TRACK 108 AUDIO
    TITLE "2:cjc102_0527"
    INDEX 01 01:47:70
  TRACK 109 AUDIO
    TITLE "0:"
    INDEX 01 01:49:22
  TRACK 110 AUDIO
    TITLE "3:cjc102_0528"
    INDEX 01 01:50:58
  TRACK 111 AUDIO
    TITLE "0:"
    INDEX 01 01:52:10
  TRACK 112 AUDIO
    TITLE "2:cjc102_0529"
    INDEX 01 01:52:71
  TRACK 113 AUDIO
    TITLE "0:"
    INDEX 01 01:55:46
  TRACK 114 AUDIO
    TITLE "3:cjc102_0530"
    INDEX 01 01:56:73
  TRACK 115 AUDIO
    TITLE "0:"
    INDEX 01 01:58:25
  TRACK 116 AUDIO
    TITLE "2:cjc102_0531"
    INDEX 01 01:58:72
  TRACK 117 AUDIO
    TITLE "0:"
    INDEX 01 02:02:73
  TRACK 118 AUDIO
    TITLE "3:cjc102_0532"
    INDEX 01 02:04:37
  TRACK 119 AUDIO
    TITLE "0:"
    INDEX 01 02:05:52
  TRACK 120 AUDIO
    TITLE "2:cjc102_0533"
    INDEX 01 02:06:44
  TRACK 121 AUDIO
    TITLE "0:"
    INDEX 01 02:11:10
